STARTFONT 2.1
COMMENT The X10 name for this font was "/usr/theorem/fonts/kiltersym.onx"
FONT /usr/theorem/fonts/kiltersym.onx.bdf
SIZE 11 75 75
FONTBOUNDINGBOX 8 13 0 0
STARTPROPERTIES 2
FONT_DESCENT 0
FONT_ASCENT 13
ENDPROPERTIES
CHARS 256
STARTCHAR C000
ENCODING 0
SWIDTH 1 0
DWIDTH 8 0
BBX 8 13 0 0
BITMAP
00
00
00
00
00
00
00
00
00
00
00
00
00
ENDCHAR
STARTCHAR C001
ENCODING 1
SWIDTH 1 0
DWIDTH 8 0
BBX 8 13 0 0
BITMAP
00
00
00
00
08
1c
3e
7f
3e
1c
08
00
00
ENDCHAR
STARTCHAR C002
ENCODING 2
SWIDTH 1 0
DWIDTH 8 0
BBX 8 13 0 0
BITMAP
00
00
55
aa
55
aa
55
aa
55
aa
55
00
00
ENDCHAR
STARTCHAR C003
ENCODING 3
SWIDTH 1 0
DWIDTH 8 0
BBX 8 13 0 0
BITMAP
48
48
78
48
48
00
3e
08
08
08
08
00
00
ENDCHAR
STARTCHAR C004
ENCODING 4
SWIDTH 1 0
DWIDTH 8 0
BBX 8 13 0 0
BITMAP
70
40
70
40
40
00
0e
08
0e
08
08
00
00
ENDCHAR
STARTCHAR C005
ENCODING 5
SWIDTH 1 0
DWIDTH 8 0
BBX 8 13 0 0
BITMAP
40
40
40
38
00
1c
12
12
1c
14
12
00
00
ENDCHAR
STARTCHAR C006
ENCODING 6
SWIDTH 1 0
DWIDTH 8 0
BBX 8 13 0 0
BITMAP
40
40
40
40
78
00
1e
10
1e
10
10
00
00
ENDCHAR
STARTCHAR C007
ENCODING 7
SWIDTH 1 0
DWIDTH 8 0
BBX 8 13 0 0
BITMAP
24
24
18
00
00
00
00
00
00
00
00
00
00
ENDCHAR
STARTCHAR C010
ENCODING 8
SWIDTH 1 0
DWIDTH 8 0
BBX 8 13 0 0
BITMAP
00
10
10
10
7c
10
10
10
00
7e
00
00
00
ENDCHAR
STARTCHAR C011
ENCODING 9
SWIDTH 1 0
DWIDTH 8 0
BBX 8 13 0 0
BITMAP
44
64
54
4c
44
00
10
10
10
10
1e
00
00
ENDCHAR
STARTCHAR C012
ENCODING 10
SWIDTH 1 0
DWIDTH 8 0
BBX 8 13 0 0
BITMAP
44
44
44
28
10
00
3e
08
08
08
08
00
00
ENDCHAR
STARTCHAR C013
ENCODING 11
SWIDTH 1 0
DWIDTH 8 0
BBX 8 13 0 0
BITMAP
08
08
08
08
08
f8
00
00
00
00
00
00
00
ENDCHAR
STARTCHAR C014
ENCODING 12
SWIDTH 1 0
DWIDTH 8 0
BBX 8 13 0 0
BITMAP
00
00
00
00
00
f8
08
08
08
08
08
08
08
ENDCHAR
STARTCHAR C015
ENCODING 13
SWIDTH 1 0
DWIDTH 8 0
BBX 8 13 0 0
BITMAP
00
00
00
00
00
0f
08
08
08
08
08
08
08
ENDCHAR
STARTCHAR C016
ENCODING 14
SWIDTH 1 0
DWIDTH 8 0
BBX 8 13 0 0
BITMAP
08
08
08
08
08
0f
00
00
00
00
00
00
00
ENDCHAR
STARTCHAR C017
ENCODING 15
SWIDTH 1 0
DWIDTH 8 0
BBX 8 13 0 0
BITMAP
08
08
08
08
08
ff
08
08
08
08
08
08
08
ENDCHAR
STARTCHAR C020
ENCODING 16
SWIDTH 1 0
DWIDTH 8 0
BBX 8 13 0 0
BITMAP
00
00
00
00
00
00
00
00
00
00
00
00
00
ENDCHAR
STARTCHAR C021
ENCODING 17
SWIDTH 1 0
DWIDTH 8 0
BBX 8 13 0 0
BITMAP
00
ff
00
00
00
00
00
00
00
00
00
00
00
ENDCHAR
STARTCHAR C022
ENCODING 18
SWIDTH 1 0
DWIDTH 8 0
BBX 8 13 0 0
BITMAP
00
00
00
00
00
ff
00
00
00
00
00
00
00
ENDCHAR
STARTCHAR C023
ENCODING 19
SWIDTH 1 0
DWIDTH 8 0
BBX 8 13 0 0
BITMAP
00
00
00
00
00
00
00
00
00
ff
00
00
00
ENDCHAR
STARTCHAR C024
ENCODING 20
SWIDTH 1 0
DWIDTH 8 0
BBX 8 13 0 0
BITMAP
00
00
00
00
00
00
00
00
00
00
00
00
ff
ENDCHAR
STARTCHAR C025
ENCODING 21
SWIDTH 1 0
DWIDTH 8 0
BBX 8 13 0 0
BITMAP
08
08
08
08
08
0f
08
08
08
08
08
08
08
ENDCHAR
STARTCHAR C026
ENCODING 22
SWIDTH 1 0
DWIDTH 8 0
BBX 8 13 0 0
BITMAP
08
08
08
08
08
f8
08
08
08
08
08
08
08
ENDCHAR
STARTCHAR C027
ENCODING 23
SWIDTH 1 0
DWIDTH 8 0
BBX 8 13 0 0
BITMAP
08
08
08
08
08
ff
00
00
00
00
00
00
00
ENDCHAR
STARTCHAR C030
ENCODING 24
SWIDTH 1 0
DWIDTH 8 0
BBX 8 13 0 0
BITMAP
00
00
00
00
00
ff
08
08
08
08
08
08
08
ENDCHAR
STARTCHAR C031
ENCODING 25
SWIDTH 1 0
DWIDTH 8 0
BBX 8 13 0 0
BITMAP
08
08
08
08
08
08
08
08
08
08
08
08
08
ENDCHAR
STARTCHAR C032
ENCODING 26
SWIDTH 1 0
DWIDTH 8 0
BBX 8 13 0 0
BITMAP
00
08
10
20
40
20
10
08
00
00
7e
00
00
ENDCHAR
STARTCHAR C033
ENCODING 27
SWIDTH 1 0
DWIDTH 8 0
BBX 8 13 0 0
BITMAP
00
20
10
08
04
08
10
20
00
00
7e
00
00
ENDCHAR
STARTCHAR C034
ENCODING 28
SWIDTH 1 0
DWIDTH 8 0
BBX 8 13 0 0
BITMAP
00
00
00
00
00
7f
12
12
12
12
22
00
00
ENDCHAR
STARTCHAR C035
ENCODING 29
SWIDTH 1 0
DWIDTH 8 0
BBX 8 13 0 0
BITMAP
00
00
00
01
02
7f
08
10
7f
40
80
00
00
ENDCHAR
STARTCHAR C036
ENCODING 30
SWIDTH 1 0
DWIDTH 8 0
BBX 8 13 0 0
BITMAP
0e
11
10
10
10
7c
10
10
10
3b
6e
00
00
ENDCHAR
STARTCHAR C037
ENCODING 31
SWIDTH 1 0
DWIDTH 8 0
BBX 8 13 0 0
BITMAP
00
00
00
00
00
08
00
00
00
00
00
00
00
ENDCHAR
STARTCHAR C040
ENCODING 32
SWIDTH 1 0
DWIDTH 8 0
BBX 8 13 0 0
BITMAP
00
00
00
00
00
00
00
00
00
00
00
00
00
ENDCHAR
STARTCHAR !
ENCODING 33
SWIDTH 1 0
DWIDTH 8 0
BBX 8 13 0 0
BITMAP
00
10
10
10
10
10
10
10
10
00
10
00
00
ENDCHAR
STARTCHAR "
ENCODING 34
SWIDTH 1 0
DWIDTH 8 0
BBX 8 13 0 0
BITMAP
00
00
24
24
24
00
00
00
00
00
00
00
00
ENDCHAR
STARTCHAR #
ENCODING 35
SWIDTH 1 0
DWIDTH 8 0
BBX 8 13 0 0
BITMAP
00
00
00
24
24
7e
24
7e
24
24
00
00
00
ENDCHAR
STARTCHAR $
ENCODING 36
SWIDTH 1 0
DWIDTH 8 0
BBX 8 13 0 0
BITMAP
00
08
08
1c
22
20
1c
02
22
1c
08
08
00
ENDCHAR
STARTCHAR %
ENCODING 37
SWIDTH 1 0
DWIDTH 8 0
BBX 8 13 0 0
BITMAP
00
00
31
49
32
04
08
10
26
49
46
00
00
ENDCHAR
STARTCHAR &
ENCODING 38
SWIDTH 1 0
DWIDTH 8 0
BBX 8 13 0 0
BITMAP
00
00
30
48
48
48
30
4a
44
44
3a
00
00
ENDCHAR
STARTCHAR '
ENCODING 39
SWIDTH 1 0
DWIDTH 8 0
BBX 8 13 0 0
BITMAP
00
00
18
10
20
00
00
00
00
00
00
00
00
ENDCHAR
STARTCHAR (
ENCODING 40
SWIDTH 1 0
DWIDTH 8 0
BBX 8 13 0 0
BITMAP
00
00
04
08
08
10
10
10
08
08
04
00
00
ENDCHAR
STARTCHAR )
ENCODING 41
SWIDTH 1 0
DWIDTH 8 0
BBX 8 13 0 0
BITMAP
00
00
20
10
10
08
08
08
10
10
20
00
00
ENDCHAR
STARTCHAR *
ENCODING 42
SWIDTH 1 0
DWIDTH 8 0
BBX 8 13 0 0
BITMAP
00
00
00
00
24
18
7e
18
24
00
00
00
00
ENDCHAR
STARTCHAR +
ENCODING 43
SWIDTH 1 0
DWIDTH 8 0
BBX 8 13 0 0
BITMAP
00
00
00
00
08
08
3e
08
08
00
00
00
00
ENDCHAR
STARTCHAR ,
ENCODING 44
SWIDTH 1 0
DWIDTH 8 0
BBX 8 13 0 0
BITMAP
00
00
00
00
00
00
00
00
00
30
20
40
00
ENDCHAR
STARTCHAR -
ENCODING 45
SWIDTH 1 0
DWIDTH 8 0
BBX 8 13 0 0
BITMAP
00
00
00
00
00
7e
00
00
00
00
00
00
00
ENDCHAR
STARTCHAR .
ENCODING 46
SWIDTH 1 0
DWIDTH 8 0
BBX 8 13 0 0
BITMAP
00
00
00
00
00
00
00
00
00
30
30
00
00
ENDCHAR
STARTCHAR /
ENCODING 47
SWIDTH 1 0
DWIDTH 8 0
BBX 8 13 0 0
BITMAP
00
00
01
01
02
04
08
10
20
40
40
00
00
ENDCHAR
STARTCHAR 0
ENCODING 48
SWIDTH 1 0
DWIDTH 8 0
BBX 8 13 0 0
BITMAP
00
00
18
24
42
42
42
42
42
24
18
00
00
ENDCHAR
STARTCHAR 1
ENCODING 49
SWIDTH 1 0
DWIDTH 8 0
BBX 8 13 0 0
BITMAP
00
00
08
18
28
08
08
08
08
08
3e
00
00
ENDCHAR
STARTCHAR 2
ENCODING 50
SWIDTH 1 0
DWIDTH 8 0
BBX 8 13 0 0
BITMAP
00
00
3c
42
02
02
1c
20
40
40
7e
00
00
ENDCHAR
STARTCHAR 3
ENCODING 51
SWIDTH 1 0
DWIDTH 8 0
BBX 8 13 0 0
BITMAP
00
00
7e
02
04
08
1c
02
02
42
3c
00
00
ENDCHAR
STARTCHAR 4
ENCODING 52
SWIDTH 1 0
DWIDTH 8 0
BBX 8 13 0 0
BITMAP
00
00
04
0c
14
24
44
7e
04
04
04
00
00
ENDCHAR
STARTCHAR 5
ENCODING 53
SWIDTH 1 0
DWIDTH 8 0
BBX 8 13 0 0
BITMAP
00
00
7e
40
40
5c
62
02
02
42
3c
00
00
ENDCHAR
STARTCHAR 6
ENCODING 54
SWIDTH 1 0
DWIDTH 8 0
BBX 8 13 0 0
BITMAP
00
00
3c
42
40
40
5c
62
42
42
3c
00
00
ENDCHAR
STARTCHAR 7
ENCODING 55
SWIDTH 1 0
DWIDTH 8 0
BBX 8 13 0 0
BITMAP
00
00
7e
02
04
08
08
10
10
20
20
00
00
ENDCHAR
STARTCHAR 8
ENCODING 56
SWIDTH 1 0
DWIDTH 8 0
BBX 8 13 0 0
BITMAP
00
00
3c
42
42
42
3c
42
42
42
3c
00
00
ENDCHAR
STARTCHAR 9
ENCODING 57
SWIDTH 1 0
DWIDTH 8 0
BBX 8 13 0 0
BITMAP
00
00
3c
42
42
46
3a
02
02
42
3c
00
00
ENDCHAR
STARTCHAR :
ENCODING 58
SWIDTH 1 0
DWIDTH 8 0
BBX 8 13 0 0
BITMAP
00
00
00
00
18
18
00
00
00
18
18
00
00
ENDCHAR
STARTCHAR ;
ENCODING 59
SWIDTH 1 0
DWIDTH 8 0
BBX 8 13 0 0
BITMAP
00
00
00
00
30
30
00
00
00
30
20
40
00
ENDCHAR
STARTCHAR <
ENCODING 60
SWIDTH 1 0
DWIDTH 8 0
BBX 8 13 0 0
BITMAP
00
00
02
04
08
10
20
10
08
04
02
00
00
ENDCHAR
STARTCHAR =
ENCODING 61
SWIDTH 1 0
DWIDTH 8 0
BBX 8 13 0 0
BITMAP
00
00
00
00
00
7e
00
00
7e
00
00
00
00
ENDCHAR
STARTCHAR >
ENCODING 62
SWIDTH 1 0
DWIDTH 8 0
BBX 8 13 0 0
BITMAP
00
00
20
10
08
04
02
04
08
10
20
00
00
ENDCHAR
STARTCHAR ?
ENCODING 63
SWIDTH 1 0
DWIDTH 8 0
BBX 8 13 0 0
BITMAP
00
3c
42
42
02
04
08
10
10
00
10
00
00
ENDCHAR
STARTCHAR @
ENCODING 64
SWIDTH 1 0
DWIDTH 8 0
BBX 8 13 0 0
BITMAP
00
00
3c
42
42
4e
52
56
4a
40
3c
00
00
ENDCHAR
STARTCHAR A
ENCODING 65
SWIDTH 1 0
DWIDTH 8 0
BBX 8 13 0 0
BITMAP
00
00
18
24
42
42
42
7e
42
42
42
00
00
ENDCHAR
STARTCHAR B
ENCODING 66
SWIDTH 1 0
DWIDTH 8 0
BBX 8 13 0 0
BITMAP
00
00
7c
42
42
42
7c
42
42
42
7c
00
00
ENDCHAR
STARTCHAR C
ENCODING 67
SWIDTH 1 0
DWIDTH 8 0
BBX 8 13 0 0
BITMAP
00
00
3c
42
40
40
40
40
40
42
3c
00
00
ENDCHAR
STARTCHAR D
ENCODING 68
SWIDTH 1 0
DWIDTH 8 0
BBX 8 13 0 0
BITMAP
00
00
7c
42
42
42
42
42
42
42
7c
00
00
ENDCHAR
STARTCHAR E
ENCODING 69
SWIDTH 1 0
DWIDTH 8 0
BBX 8 13 0 0
BITMAP
00
00
7e
40
40
40
78
40
40
40
7e
00
00
ENDCHAR
STARTCHAR F
ENCODING 70
SWIDTH 1 0
DWIDTH 8 0
BBX 8 13 0 0
BITMAP
00
00
7e
40
40
40
78
40
40
40
40
00
00
ENDCHAR
STARTCHAR G
ENCODING 71
SWIDTH 1 0
DWIDTH 8 0
BBX 8 13 0 0
BITMAP
00
00
3c
42
40
40
40
4c
42
42
3c
00
00
ENDCHAR
STARTCHAR H
ENCODING 72
SWIDTH 1 0
DWIDTH 8 0
BBX 8 13 0 0
BITMAP
00
00
42
42
42
42
7e
42
42
42
42
00
00
ENDCHAR
STARTCHAR I
ENCODING 73
SWIDTH 1 0
DWIDTH 8 0
BBX 8 13 0 0
BITMAP
00
00
3c
10
10
10
10
10
10
10
3c
00
00
ENDCHAR
STARTCHAR J
ENCODING 74
SWIDTH 1 0
DWIDTH 8 0
BBX 8 13 0 0
BITMAP
00
00
0c
04
04
04
04
04
04
44
38
00
00
ENDCHAR
STARTCHAR K
ENCODING 75
SWIDTH 1 0
DWIDTH 8 0
BBX 8 13 0 0
BITMAP
00
00
42
44
48
50
60
50
48
44
42
00
00
ENDCHAR
STARTCHAR L
ENCODING 76
SWIDTH 1 0
DWIDTH 8 0
BBX 8 13 0 0
BITMAP
00
00
40
40
40
40
40
40
40
40
7e
00
00
ENDCHAR
STARTCHAR M
ENCODING 77
SWIDTH 1 0
DWIDTH 8 0
BBX 8 13 0 0
BITMAP
00
00
41
63
55
49
49
41
41
41
41
00
00
ENDCHAR
STARTCHAR N
ENCODING 78
SWIDTH 1 0
DWIDTH 8 0
BBX 8 13 0 0
BITMAP
00
00
42
42
62
52
4a
46
42
42
42
00
00
ENDCHAR
STARTCHAR O
ENCODING 79
SWIDTH 1 0
DWIDTH 8 0
BBX 8 13 0 0
BITMAP
00
00
3c
42
42
42
42
42
42
42
3c
00
00
ENDCHAR
STARTCHAR P
ENCODING 80
SWIDTH 1 0
DWIDTH 8 0
BBX 8 13 0 0
BITMAP
00
00
7c
42
42
42
7c
40
40
40
40
00
00
ENDCHAR
STARTCHAR Q
ENCODING 81
SWIDTH 1 0
DWIDTH 8 0
BBX 8 13 0 0
BITMAP
00
00
3c
42
42
42
42
42
52
4a
3c
02
00
ENDCHAR
STARTCHAR R
ENCODING 82
SWIDTH 1 0
DWIDTH 8 0
BBX 8 13 0 0
BITMAP
00
00
7c
42
42
42
7c
50
48
44
42
00
00
ENDCHAR
STARTCHAR S
ENCODING 83
SWIDTH 1 0
DWIDTH 8 0
BBX 8 13 0 0
BITMAP
00
00
3c
42
40
40
3c
02
02
42
3c
00
00
ENDCHAR
STARTCHAR T
ENCODING 84
SWIDTH 1 0
DWIDTH 8 0
BBX 8 13 0 0
BITMAP
00
00
7e
10
10
10
10
10
10
10
10
00
00
ENDCHAR
STARTCHAR U
ENCODING 85
SWIDTH 1 0
DWIDTH 8 0
BBX 8 13 0 0
BITMAP
00
00
42
42
42
42
42
42
42
42
3c
00
00
ENDCHAR
STARTCHAR V
ENCODING 86
SWIDTH 1 0
DWIDTH 8 0
BBX 8 13 0 0
BITMAP
00
00
41
41
22
22
22
14
14
14
08
00
00
ENDCHAR
STARTCHAR W
ENCODING 87
SWIDTH 1 0
DWIDTH 8 0
BBX 8 13 0 0
BITMAP
00
00
41
41
41
41
49
49
49
55
22
00
00
ENDCHAR
STARTCHAR X
ENCODING 88
SWIDTH 1 0
DWIDTH 8 0
BBX 8 13 0 0
BITMAP
00
00
41
41
22
14
08
14
22
41
41
00
00
ENDCHAR
STARTCHAR Y
ENCODING 89
SWIDTH 1 0
DWIDTH 8 0
BBX 8 13 0 0
BITMAP
00
00
41
41
22
14
08
08
08
08
08
00
00
ENDCHAR
STARTCHAR Z
ENCODING 90
SWIDTH 1 0
DWIDTH 8 0
BBX 8 13 0 0
BITMAP
00
00
7e
02
04
08
10
20
40
40
7e
00
00
ENDCHAR
STARTCHAR [
ENCODING 91
SWIDTH 1 0
DWIDTH 8 0
BBX 8 13 0 0
BITMAP
00
00
3c
20
20
20
20
20
20
20
3c
00
00
ENDCHAR
STARTCHAR \
ENCODING 92
SWIDTH 1 0
DWIDTH 8 0
BBX 8 13 0 0
BITMAP
00
00
40
40
20
10
08
04
02
01
01
00
00
ENDCHAR
STARTCHAR ]
ENCODING 93
SWIDTH 1 0
DWIDTH 8 0
BBX 8 13 0 0
BITMAP
00
00
3c
04
04
04
04
04
04
04
3c
00
00
ENDCHAR
STARTCHAR ^
ENCODING 94
SWIDTH 1 0
DWIDTH 8 0
BBX 8 13 0 0
BITMAP
00
08
14
22
00
00
00
00
00
00
00
00
00
ENDCHAR
STARTCHAR _
ENCODING 95
SWIDTH 1 0
DWIDTH 8 0
BBX 8 13 0 0
BITMAP
00
00
00
00
00
00
00
00
00
00
00
7e
00
ENDCHAR
STARTCHAR `
ENCODING 96
SWIDTH 1 0
DWIDTH 8 0
BBX 8 13 0 0
BITMAP
00
00
18
08
04
00
00
00
00
00
00
00
00
ENDCHAR
STARTCHAR a
ENCODING 97
SWIDTH 1 0
DWIDTH 8 0
BBX 8 13 0 0
BITMAP
00
00
00
00
00
3c
02
3e
42
42
3e
00
00
ENDCHAR
STARTCHAR b
ENCODING 98
SWIDTH 1 0
DWIDTH 8 0
BBX 8 13 0 0
BITMAP
00
00
40
40
40
7c
42
42
42
42
7c
00
00
ENDCHAR
STARTCHAR c
ENCODING 99
SWIDTH 1 0
DWIDTH 8 0
BBX 8 13 0 0
BITMAP
00
00
00
00
00
3c
42
40
40
42
3c
00
00
ENDCHAR
STARTCHAR d
ENCODING 100
SWIDTH 1 0
DWIDTH 8 0
BBX 8 13 0 0
BITMAP
00
00
02
02
02
3e
42
42
42
42
3e
00
00
ENDCHAR
STARTCHAR e
ENCODING 101
SWIDTH 1 0
DWIDTH 8 0
BBX 8 13 0 0
BITMAP
00
00
00
00
00
3c
42
7e
40
40
3c
00
00
ENDCHAR
STARTCHAR f
ENCODING 102
SWIDTH 1 0
DWIDTH 8 0
BBX 8 13 0 0
BITMAP
00
00
1c
22
20
20
78
20
20
20
20
00
00
ENDCHAR
STARTCHAR g
ENCODING 103
SWIDTH 1 0
DWIDTH 8 0
BBX 8 13 0 0
BITMAP
00
00
00
00
00
3c
42
42
42
3c
02
02
3c
ENDCHAR
STARTCHAR h
ENCODING 104
SWIDTH 1 0
DWIDTH 8 0
BBX 8 13 0 0
BITMAP
00
00
40
40
40
7c
42
42
42
42
42
00
00
ENDCHAR
STARTCHAR i
ENCODING 105
SWIDTH 1 0
DWIDTH 8 0
BBX 8 13 0 0
BITMAP
00
00
00
10
00
10
10
10
10
10
3c
00
00
ENDCHAR
STARTCHAR j
ENCODING 106
SWIDTH 1 0
DWIDTH 8 0
BBX 8 13 0 0
BITMAP
00
00
00
00
08
00
18
08
08
08
08
08
70
ENDCHAR
STARTCHAR k
ENCODING 107
SWIDTH 1 0
DWIDTH 8 0
BBX 8 13 0 0
BITMAP
00
00
40
40
40
44
48
70
48
44
42
00
00
ENDCHAR
STARTCHAR l
ENCODING 108
SWIDTH 1 0
DWIDTH 8 0
BBX 8 13 0 0
BITMAP
00
00
30
10
10
10
10
10
10
10
3c
00
00
ENDCHAR
STARTCHAR m
ENCODING 109
SWIDTH 1 0
DWIDTH 8 0
BBX 8 13 0 0
BITMAP
00
00
00
00
00
76
49
49
49
41
41
00
00
ENDCHAR
STARTCHAR n
ENCODING 110
SWIDTH 1 0
DWIDTH 8 0
BBX 8 13 0 0
BITMAP
00
00
00
00
00
7c
42
42
42
42
42
00
00
ENDCHAR
STARTCHAR o
ENCODING 111
SWIDTH 1 0
DWIDTH 8 0
BBX 8 13 0 0
BITMAP
00
00
00
00
00
3c
42
42
42
42
3c
00
00
ENDCHAR
STARTCHAR p
ENCODING 112
SWIDTH 1 0
DWIDTH 8 0
BBX 8 13 0 0
BITMAP
00
00
00
00
00
5c
62
42
62
5c
40
40
40
ENDCHAR
STARTCHAR q
ENCODING 113
SWIDTH 1 0
DWIDTH 8 0
BBX 8 13 0 0
BITMAP
00
00
00
00
00
3a
46
42
46
3a
02
02
02
ENDCHAR
STARTCHAR r
ENCODING 114
SWIDTH 1 0
DWIDTH 8 0
BBX 8 13 0 0
BITMAP
00
00
00
00
00
3c
22
20
20
20
20
00
00
ENDCHAR
STARTCHAR s
ENCODING 115
SWIDTH 1 0
DWIDTH 8 0
BBX 8 13 0 0
BITMAP
00
00
00
00
00
3c
40
3c
02
42
3c
00
00
ENDCHAR
STARTCHAR t
ENCODING 116
SWIDTH 1 0
DWIDTH 8 0
BBX 8 13 0 0
BITMAP
00
00
00
10
10
3c
10
10
10
10
18
00
00
ENDCHAR
STARTCHAR u
ENCODING 117
SWIDTH 1 0
DWIDTH 8 0
BBX 8 13 0 0
BITMAP
00
00
00
00
00
42
42
42
42
42
3c
00
00
ENDCHAR
STARTCHAR v
ENCODING 118
SWIDTH 1 0
DWIDTH 8 0
BBX 8 13 0 0
BITMAP
00
00
00
00
00
44
44
44
28
28
10
00
00
ENDCHAR
STARTCHAR w
ENCODING 119
SWIDTH 1 0
DWIDTH 8 0
BBX 8 13 0 0
BITMAP
00
00
00
00
00
41
41
49
49
55
22
00
00
ENDCHAR
STARTCHAR x
ENCODING 120
SWIDTH 1 0
DWIDTH 8 0
BBX 8 13 0 0
BITMAP
00
00
00
00
00
42
24
18
18
24
42
00
00
ENDCHAR
STARTCHAR y
ENCODING 121
SWIDTH 1 0
DWIDTH 8 0
BBX 8 13 0 0
BITMAP
00
00
00
00
00
42
42
42
42
3c
02
02
7c
ENDCHAR
STARTCHAR z
ENCODING 122
SWIDTH 1 0
DWIDTH 8 0
BBX 8 13 0 0
BITMAP
00
00
00
00
00
7e
04
08
10
20
7e
00
00
ENDCHAR
STARTCHAR {
ENCODING 123
SWIDTH 1 0
DWIDTH 8 0
BBX 8 13 0 0
BITMAP
00
00
0e
10
10
08
30
08
10
10
0e
00
00
ENDCHAR
STARTCHAR |
ENCODING 124
SWIDTH 1 0
DWIDTH 8 0
BBX 8 13 0 0
BITMAP
00
00
08
08
08
08
08
08
08
08
08
00
00
ENDCHAR
STARTCHAR }
ENCODING 125
SWIDTH 1 0
DWIDTH 8 0
BBX 8 13 0 0
BITMAP
00
00
70
08
08
10
0c
10
08
08
70
00
00
ENDCHAR
STARTCHAR ~
ENCODING 126
SWIDTH 1 0
DWIDTH 8 0
BBX 8 13 0 0
BITMAP
00
32
4c
00
00
00
00
00
00
00
00
00
00
ENDCHAR
STARTCHAR C177
ENCODING 127
SWIDTH 1 0
DWIDTH 8 0
BBX 8 13 0 0
BITMAP
00
00
00
00
00
00
00
00
00
00
00
00
00
ENDCHAR
STARTCHAR C200
ENCODING 128
SWIDTH 1 0
DWIDTH 8 0
BBX 8 13 0 0
BITMAP
00
00
07
04
04
04
04
44
28
28
10
00
00
ENDCHAR
STARTCHAR C201
ENCODING 129
SWIDTH 1 0
DWIDTH 8 0
BBX 8 13 0 0
BITMAP
00
00
08
14
32
51
51
7f
51
51
51
00
00
ENDCHAR
STARTCHAR C202
ENCODING 130
SWIDTH 1 0
DWIDTH 8 0
BBX 8 13 0 0
BITMAP
00
00
7e
51
51
51
7e
51
51
51
7e
00
00
ENDCHAR
STARTCHAR C203
ENCODING 131
SWIDTH 1 0
DWIDTH 8 0
BBX 8 13 0 0
BITMAP
00
00
3e
51
50
50
50
50
50
51
3e
00
00
ENDCHAR
STARTCHAR C204
ENCODING 132
SWIDTH 1 0
DWIDTH 8 0
BBX 8 13 0 0
BITMAP
00
00
7c
52
51
51
51
51
51
52
7c
00
00
ENDCHAR
STARTCHAR C205
ENCODING 133
SWIDTH 1 0
DWIDTH 8 0
BBX 8 13 0 0
BITMAP
00
00
7f
50
50
50
7c
50
50
50
7f
00
00
ENDCHAR
STARTCHAR C206
ENCODING 134
SWIDTH 1 0
DWIDTH 8 0
BBX 8 13 0 0
BITMAP
00
00
7f
50
50
50
7c
50
50
50
50
00
00
ENDCHAR
STARTCHAR C207
ENCODING 135
SWIDTH 1 0
DWIDTH 8 0
BBX 8 13 0 0
BITMAP
00
00
3e
51
50
50
50
57
51
51
3e
00
00
ENDCHAR
STARTCHAR C210
ENCODING 136
SWIDTH 1 0
DWIDTH 8 0
BBX 8 13 0 0
BITMAP
00
00
51
51
51
51
7f
51
51
51
51
00
00
ENDCHAR
STARTCHAR C211
ENCODING 137
SWIDTH 1 0
DWIDTH 8 0
BBX 8 13 0 0
BITMAP
00
00
7f
14
14
14
14
14
14
14
7f
00
00
ENDCHAR
STARTCHAR C212
ENCODING 138
SWIDTH 1 0
DWIDTH 8 0
BBX 8 13 0 0
BITMAP
00
00
07
05
05
05
05
05
45
45
3e
00
00
ENDCHAR
STARTCHAR C213
ENCODING 139
SWIDTH 1 0
DWIDTH 8 0
BBX 8 13 0 0
BITMAP
00
00
51
52
54
58
70
58
54
52
51
00
00
ENDCHAR
STARTCHAR C214
ENCODING 140
SWIDTH 1 0
DWIDTH 8 0
BBX 8 13 0 0
BITMAP
00
00
50
50
50
50
50
50
50
50
7f
00
00
ENDCHAR
STARTCHAR C215
ENCODING 141
SWIDTH 1 0
DWIDTH 8 0
BBX 8 13 0 0
BITMAP
00
00
41
63
55
59
51
51
51
51
51
00
00
ENDCHAR
STARTCHAR C216
ENCODING 142
SWIDTH 1 0
DWIDTH 8 0
BBX 8 13 0 0
BITMAP
00
00
41
41
61
51
59
55
53
51
51
00
00
ENDCHAR
STARTCHAR C217
ENCODING 143
SWIDTH 1 0
DWIDTH 8 0
BBX 8 13 0 0
BITMAP
00
00
3e
51
51
51
51
51
51
51
3e
00
00
ENDCHAR
STARTCHAR C220
ENCODING 144
SWIDTH 1 0
DWIDTH 8 0
BBX 8 13 0 0
BITMAP
00
00
7e
51
51
51
7e
50
50
50
50
00
00
ENDCHAR
STARTCHAR C221
ENCODING 145
SWIDTH 1 0
DWIDTH 8 0
BBX 8 13 0 0
BITMAP
00
00
1c
32
51
51
51
51
55
32
1d
00
00
ENDCHAR
STARTCHAR C222
ENCODING 146
SWIDTH 1 0
DWIDTH 8 0
BBX 8 13 0 0
BITMAP
00
00
7e
51
51
51
7e
58
54
52
51
00
00
ENDCHAR
STARTCHAR C223
ENCODING 147
SWIDTH 1 0
DWIDTH 8 0
BBX 8 13 0 0
BITMAP
00
00
3e
51
50
50
3e
05
05
45
3e
00
00
ENDCHAR
STARTCHAR C224
ENCODING 148
SWIDTH 1 0
DWIDTH 8 0
BBX 8 13 0 0
BITMAP
00
00
7f
49
6b
08
08
08
08
08
08
08
00
ENDCHAR
STARTCHAR C225
ENCODING 149
SWIDTH 1 0
DWIDTH 8 0
BBX 8 13 0 0
BITMAP
00
00
51
51
51
51
51
51
51
51
3e
00
00
ENDCHAR
STARTCHAR C226
ENCODING 150
SWIDTH 1 0
DWIDTH 8 0
BBX 8 13 0 0
BITMAP
00
00
51
51
52
52
54
58
50
60
40
00
00
ENDCHAR
STARTCHAR C227
ENCODING 151
SWIDTH 1 0
DWIDTH 8 0
BBX 8 13 0 0
BITMAP
00
00
61
61
61
61
69
69
69
75
22
00
00
ENDCHAR
STARTCHAR C230
ENCODING 152
SWIDTH 1 0
DWIDTH 8 0
BBX 8 13 0 0
BITMAP
00
00
41
41
62
54
28
14
2a
45
43
00
00
ENDCHAR
STARTCHAR C231
ENCODING 153
SWIDTH 1 0
DWIDTH 8 0
BBX 8 13 0 0
BITMAP
00
00
41
41
22
14
1c
14
14
14
14
00
00
ENDCHAR
STARTCHAR C232
ENCODING 154
SWIDTH 1 0
DWIDTH 8 0
BBX 8 13 0 0
BITMAP
00
00
7f
03
05
0a
14
28
50
60
7f
00
00
ENDCHAR
STARTCHAR C233
ENCODING 155
SWIDTH 1 0
DWIDTH 8 0
BBX 8 13 0 0
BITMAP
00
00
00
08
08
08
7f
08
08
08
7f
00
00
ENDCHAR
STARTCHAR C234
ENCODING 156
SWIDTH 1 0
DWIDTH 8 0
BBX 8 13 0 0
BITMAP
00
00
7f
08
08
08
7f
08
08
08
00
00
00
ENDCHAR
STARTCHAR C235
ENCODING 157
SWIDTH 1 0
DWIDTH 8 0
BBX 8 13 0 0
BITMAP
00
00
00
00
00
00
00
7f
01
01
00
00
00
ENDCHAR
STARTCHAR C236
ENCODING 158
SWIDTH 1 0
DWIDTH 8 0
BBX 8 13 0 0
BITMAP
00
00
40
40
7f
41
41
41
7f
01
01
00
00
ENDCHAR
STARTCHAR C237
ENCODING 159
SWIDTH 1 0
DWIDTH 8 0
BBX 8 13 0 0
BITMAP
00
00
79
09
09
09
7f
09
0a
0c
78
00
00
ENDCHAR
STARTCHAR C240
ENCODING 160
SWIDTH 1 0
DWIDTH 8 0
BBX 8 13 0 0
BITMAP
00
00
7e
50
50
50
50
50
50
50
50
50
7e
ENDCHAR
STARTCHAR C241
ENCODING 161
SWIDTH 1 0
DWIDTH 8 0
BBX 8 13 0 0
BITMAP
0f
08
08
08
08
08
08
08
08
08
08
08
08
ENDCHAR
STARTCHAR C242
ENCODING 162
SWIDTH 1 0
DWIDTH 8 0
BBX 8 13 0 0
BITMAP
78
08
08
08
08
08
08
08
08
08
08
08
08
ENDCHAR
STARTCHAR C243
ENCODING 163
SWIDTH 1 0
DWIDTH 8 0
BBX 8 13 0 0
BITMAP
08
08
08
08
08
08
08
08
08
08
08
08
0f
ENDCHAR
STARTCHAR C244
ENCODING 164
SWIDTH 1 0
DWIDTH 8 0
BBX 8 13 0 0
BITMAP
08
08
08
08
08
08
08
08
08
08
08
08
78
ENDCHAR
STARTCHAR C245
ENCODING 165
SWIDTH 1 0
DWIDTH 8 0
BBX 8 13 0 0
BITMAP
08
08
08
08
08
08
08
08
08
08
08
08
08
ENDCHAR
STARTCHAR C246
ENCODING 166
SWIDTH 1 0
DWIDTH 8 0
BBX 8 13 0 0
BITMAP
00
00
20
50
08
08
0c
14
22
22
41
00
00
ENDCHAR
STARTCHAR C247
ENCODING 167
SWIDTH 1 0
DWIDTH 8 0
BBX 8 13 0 0
BITMAP
00
00
7e
02
02
02
7e
02
02
02
7e
00
00
ENDCHAR
STARTCHAR C250
ENCODING 168
SWIDTH 1 0
DWIDTH 8 0
BBX 8 13 0 0
BITMAP
00
00
00
00
00
00
00
0c
10
10
10
10
0c
ENDCHAR
STARTCHAR C251
ENCODING 169
SWIDTH 1 0
DWIDTH 8 0
BBX 8 13 0 0
BITMAP
00
00
00
00
00
00
00
30
08
08
08
08
30
ENDCHAR
STARTCHAR C252
ENCODING 170
SWIDTH 1 0
DWIDTH 8 0
BBX 8 13 0 0
BITMAP
00
00
00
00
7f
08
08
08
08
08
08
00
00
ENDCHAR
STARTCHAR C253
ENCODING 171
SWIDTH 1 0
DWIDTH 8 0
BBX 8 13 0 0
BITMAP
00
00
00
00
08
08
08
08
08
08
7f
00
00
ENDCHAR
STARTCHAR C254
ENCODING 172
SWIDTH 1 0
DWIDTH 8 0
BBX 8 13 0 0
BITMAP
00
00
00
00
00
3e
41
41
41
41
41
00
00
ENDCHAR
STARTCHAR C255
ENCODING 173
SWIDTH 1 0
DWIDTH 8 0
BBX 8 13 0 0
BITMAP
00
00
00
00
00
7e
01
01
01
7e
00
00
00
ENDCHAR
STARTCHAR C256
ENCODING 174
SWIDTH 1 0
DWIDTH 8 0
BBX 8 13 0 0
BITMAP
00
00
00
00
00
41
41
41
41
41
3e
00
00
ENDCHAR
STARTCHAR C257
ENCODING 175
SWIDTH 1 0
DWIDTH 8 0
BBX 8 13 0 0
BITMAP
00
00
00
1f
20
40
40
20
1f
00
7f
00
00
ENDCHAR
STARTCHAR C260
ENCODING 176
SWIDTH 1 0
DWIDTH 8 0
BBX 8 13 0 0
BITMAP
00
38
44
44
44
38
00
00
00
00
00
00
00
ENDCHAR
STARTCHAR C261
ENCODING 177
SWIDTH 1 0
DWIDTH 8 0
BBX 8 13 0 0
BITMAP
00
20
60
20
20
70
00
00
00
00
00
00
00
ENDCHAR
STARTCHAR C262
ENCODING 178
SWIDTH 1 0
DWIDTH 8 0
BBX 8 13 0 0
BITMAP
00
78
04
38
40
7c
00
00
00
00
00
00
00
ENDCHAR
STARTCHAR C263
ENCODING 179
SWIDTH 1 0
DWIDTH 8 0
BBX 8 13 0 0
BITMAP
00
78
04
18
04
78
00
00
00
00
00
00
00
ENDCHAR
STARTCHAR C264
ENCODING 180
SWIDTH 1 0
DWIDTH 8 0
BBX 8 13 0 0
BITMAP
00
08
18
28
7c
08
00
00
00
00
00
00
00
ENDCHAR
STARTCHAR C265
ENCODING 181
SWIDTH 1 0
DWIDTH 8 0
BBX 8 13 0 0
BITMAP
00
7c
40
78
04
78
00
00
00
00
00
00
00
ENDCHAR
STARTCHAR C266
ENCODING 182
SWIDTH 1 0
DWIDTH 8 0
BBX 8 13 0 0
BITMAP
00
38
40
78
44
38
00
00
00
00
00
00
00
ENDCHAR
STARTCHAR C267
ENCODING 183
SWIDTH 1 0
DWIDTH 8 0
BBX 8 13 0 0
BITMAP
00
7c
04
08
10
20
00
00
00
00
00
00
00
ENDCHAR
STARTCHAR C270
ENCODING 184
SWIDTH 1 0
DWIDTH 8 0
BBX 8 13 0 0
BITMAP
00
38
44
38
44
38
00
00
00
00
00
00
00
ENDCHAR
STARTCHAR C271
ENCODING 185
SWIDTH 1 0
DWIDTH 8 0
BBX 8 13 0 0
BITMAP
00
38
44
3c
04
78
00
00
00
00
00
00
00
ENDCHAR
STARTCHAR C272
ENCODING 186
SWIDTH 1 0
DWIDTH 8 0
BBX 8 13 0 0
BITMAP
00
00
00
1f
20
40
40
20
1f
00
00
00
00
ENDCHAR
STARTCHAR C273
ENCODING 187
SWIDTH 1 0
DWIDTH 8 0
BBX 8 13 0 0
BITMAP
00
00
41
41
22
3e
22
22
14
14
08
00
00
ENDCHAR
STARTCHAR C274
ENCODING 188
SWIDTH 1 0
DWIDTH 8 0
BBX 8 13 0 0
BITMAP
00
00
3e
41
41
41
41
41
41
41
41
00
00
ENDCHAR
STARTCHAR C275
ENCODING 189
SWIDTH 1 0
DWIDTH 8 0
BBX 8 13 0 0
BITMAP
00
00
00
00
7f
00
7f
00
7f
00
00
00
00
ENDCHAR
STARTCHAR C276
ENCODING 190
SWIDTH 1 0
DWIDTH 8 0
BBX 8 13 0 0
BITMAP
00
00
41
41
41
41
41
41
41
41
3e
00
00
ENDCHAR
STARTCHAR C277
ENCODING 191
SWIDTH 1 0
DWIDTH 8 0
BBX 8 13 0 0
BITMAP
00
00
7f
41
20
10
08
10
20
41
7f
00
00
ENDCHAR
STARTCHAR C300
ENCODING 192
SWIDTH 1 0
DWIDTH 8 0
BBX 8 13 0 0
BITMAP
00
00
00
00
00
00
00
00
20
60
20
20
70
ENDCHAR
STARTCHAR C301
ENCODING 193
SWIDTH 1 0
DWIDTH 8 0
BBX 8 13 0 0
BITMAP
00
00
06
1d
24
44
44
7c
44
42
21
00
00
ENDCHAR
STARTCHAR C302
ENCODING 194
SWIDTH 1 0
DWIDTH 8 0
BBX 8 13 0 0
BITMAP
00
00
36
49
49
11
1e
11
21
41
3e
00
00
ENDCHAR
STARTCHAR C303
ENCODING 195
SWIDTH 1 0
DWIDTH 8 0
BBX 8 13 0 0
BITMAP
00
00
4e
31
3e
40
40
40
40
21
1e
00
00
ENDCHAR
STARTCHAR C304
ENCODING 196
SWIDTH 1 0
DWIDTH 8 0
BBX 8 13 0 0
BITMAP
00
00
36
49
49
11
11
11
22
42
3c
00
00
ENDCHAR
STARTCHAR C305
ENCODING 197
SWIDTH 1 0
DWIDTH 8 0
BBX 8 13 0 0
BITMAP
00
00
3c
4a
44
40
3c
40
40
41
3e
00
00
ENDCHAR
STARTCHAR C306
ENCODING 198
SWIDTH 1 0
DWIDTH 8 0
BBX 8 13 0 0
BITMAP
00
00
3f
44
44
08
08
7e
52
50
20
00
00
ENDCHAR
STARTCHAR C307
ENCODING 199
SWIDTH 1 0
DWIDTH 8 0
BBX 8 13 0 0
BITMAP
00
00
31
4f
79
09
09
51
52
62
3c
00
00
ENDCHAR
STARTCHAR C310
ENCODING 200
SWIDTH 1 0
DWIDTH 8 0
BBX 8 13 0 0
BITMAP
00
00
61
11
11
12
3e
12
22
22
41
00
00
ENDCHAR
STARTCHAR C311
ENCODING 201
SWIDTH 1 0
DWIDTH 8 0
BBX 8 13 0 0
BITMAP
00
00
0e
11
11
11
11
49
4a
46
3d
00
00
ENDCHAR
STARTCHAR C312
ENCODING 202
SWIDTH 1 0
DWIDTH 8 0
BBX 8 13 0 0
BITMAP
00
00
1c
22
42
41
41
21
1a
26
24
14
18
ENDCHAR
STARTCHAR C313
ENCODING 203
SWIDTH 1 0
DWIDTH 8 0
BBX 8 13 0 0
BITMAP
00
00
31
49
11
12
34
28
44
42
41
00
00
ENDCHAR
STARTCHAR C314
ENCODING 204
SWIDTH 1 0
DWIDTH 8 0
BBX 8 13 0 0
BITMAP
00
00
4c
32
1c
10
10
10
30
59
6e
00
00
ENDCHAR
STARTCHAR C315
ENCODING 205
SWIDTH 1 0
DWIDTH 8 0
BBX 8 13 0 0
BITMAP
00
00
2a
55
15
25
25
25
25
25
45
00
00
ENDCHAR
STARTCHAR C316
ENCODING 206
SWIDTH 1 0
DWIDTH 8 0
BBX 8 13 0 0
BITMAP
00
00
36
49
09
09
09
12
12
12
21
00
00
ENDCHAR
STARTCHAR C317
ENCODING 207
SWIDTH 1 0
DWIDTH 8 0
BBX 8 13 0 0
BITMAP
00
00
1d
22
3d
41
41
41
41
22
1c
00
00
ENDCHAR
STARTCHAR C320
ENCODING 208
SWIDTH 1 0
DWIDTH 8 0
BBX 8 13 0 0
BITMAP
00
00
1e
21
61
51
5e
50
50
70
20
00
00
ENDCHAR
STARTCHAR C321
ENCODING 209
SWIDTH 1 0
DWIDTH 8 0
BBX 8 13 0 0
BITMAP
00
00
1d
22
3d
41
41
59
45
22
1d
00
00
ENDCHAR
STARTCHAR C322
ENCODING 210
SWIDTH 1 0
DWIDTH 8 0
BBX 8 13 0 0
BITMAP
00
00
1e
21
61
51
5e
54
52
72
21
00
00
ENDCHAR
STARTCHAR C323
ENCODING 211
SWIDTH 1 0
DWIDTH 8 0
BBX 8 13 0 0
BITMAP
00
00
3c
42
20
18
06
21
51
41
3e
00
00
ENDCHAR
STARTCHAR C324
ENCODING 212
SWIDTH 1 0
DWIDTH 8 0
BBX 8 13 0 0
BITMAP
00
00
3f
48
48
08
08
08
10
50
20
00
00
ENDCHAR
STARTCHAR C325
ENCODING 213
SWIDTH 1 0
DWIDTH 8 0
BBX 8 13 0 0
BITMAP
00
00
21
52
12
22
22
22
22
22
1d
00
00
ENDCHAR
STARTCHAR C326
ENCODING 214
SWIDTH 1 0
DWIDTH 8 0
BBX 8 13 0 0
BITMAP
00
00
31
52
12
12
14
14
14
14
08
00
00
ENDCHAR
STARTCHAR C327
ENCODING 215
SWIDTH 1 0
DWIDTH 8 0
BBX 8 13 0 0
BITMAP
00
00
41
22
22
22
2a
2a
2a
36
22
00
00
ENDCHAR
STARTCHAR C330
ENCODING 216
SWIDTH 1 0
DWIDTH 8 0
BBX 8 13 0 0
BITMAP
00
00
31
4a
0a
04
04
04
0a
12
61
00
00
ENDCHAR
STARTCHAR C331
ENCODING 217
SWIDTH 1 0
DWIDTH 8 0
BBX 8 13 0 0
BITMAP
00
00
41
22
24
14
08
08
08
28
18
00
00
ENDCHAR
STARTCHAR C332
ENCODING 218
SWIDTH 1 0
DWIDTH 8 0
BBX 8 13 0 0
BITMAP
00
00
7f
41
22
04
08
10
20
41
7e
00
00
ENDCHAR
STARTCHAR C333
ENCODING 219
SWIDTH 1 0
DWIDTH 8 0
BBX 8 13 0 0
BITMAP
00
00
00
00
00
08
14
22
22
41
41
00
00
ENDCHAR
STARTCHAR C334
ENCODING 220
SWIDTH 1 0
DWIDTH 8 0
BBX 8 13 0 0
BITMAP
00
00
00
00
00
41
41
22
22
14
08
00
00
ENDCHAR
STARTCHAR C335
ENCODING 221
SWIDTH 1 0
DWIDTH 8 0
BBX 8 13 0 0
BITMAP
00
00
41
41
61
51
59
55
53
51
51
00
00
ENDCHAR
STARTCHAR C336
ENCODING 222
SWIDTH 1 0
DWIDTH 8 0
BBX 8 13 0 0
BITMAP
00
00
00
1f
10
20
3e
20
40
7c
00
00
00
ENDCHAR
STARTCHAR C337
ENCODING 223
SWIDTH 1 0
DWIDTH 8 0
BBX 8 13 0 0
BITMAP
00
00
00
00
00
10
10
20
20
28
10
00
00
ENDCHAR
STARTCHAR C340
ENCODING 224
SWIDTH 1 0
DWIDTH 8 0
BBX 8 13 0 0
BITMAP
00
00
7e
0a
0a
0a
0a
0a
0a
0a
0a
0a
7e
ENDCHAR
STARTCHAR C341
ENCODING 225
SWIDTH 1 0
DWIDTH 8 0
BBX 8 13 0 0
BITMAP
00
00
00
00
00
00
00
00
31
4a
44
4a
31
ENDCHAR
STARTCHAR C342
ENCODING 226
SWIDTH 1 0
DWIDTH 8 0
BBX 8 13 0 0
BITMAP
00
00
00
00
00
00
1c
22
24
78
44
44
78
ENDCHAR
STARTCHAR C343
ENCODING 227
SWIDTH 1 0
DWIDTH 8 0
BBX 8 13 0 0
BITMAP
00
00
00
00
00
40
30
40
40
30
40
40
20
ENDCHAR
STARTCHAR C344
ENCODING 228
SWIDTH 1 0
DWIDTH 8 0
BBX 8 13 0 0
BITMAP
00
00
00
00
00
00
0e
11
08
34
42
44
38
ENDCHAR
STARTCHAR C345
ENCODING 229
SWIDTH 1 0
DWIDTH 8 0
BBX 8 13 0 0
BITMAP
00
00
00
00
00
00
38
44
40
38
40
44
38
ENDCHAR
STARTCHAR C346
ENCODING 230
SWIDTH 1 0
DWIDTH 8 0
BBX 8 13 0 0
BITMAP
00
00
00
00
00
00
00
3e
49
49
49
3e
08
ENDCHAR
STARTCHAR C347
ENCODING 231
SWIDTH 1 0
DWIDTH 8 0
BBX 8 13 0 0
BITMAP
00
00
00
00
00
00
00
02
64
14
08
08
08
ENDCHAR
STARTCHAR C350
ENCODING 232
SWIDTH 1 0
DWIDTH 8 0
BBX 8 13 0 0
BITMAP
00
00
00
00
00
00
00
6c
32
22
44
44
4c
ENDCHAR
STARTCHAR C351
ENCODING 233
SWIDTH 1 0
DWIDTH 8 0
BBX 8 13 0 0
BITMAP
00
00
00
00
00
00
00
10
10
20
20
28
10
ENDCHAR
STARTCHAR C352
ENCODING 234
SWIDTH 1 0
DWIDTH 8 0
BBX 8 13 0 0
BITMAP
00
00
00
00
00
00
04
3e
49
49
49
3e
10
ENDCHAR
STARTCHAR C353
ENCODING 235
SWIDTH 1 0
DWIDTH 8 0
BBX 8 13 0 0
BITMAP
00
00
00
00
00
00
00
11
12
34
28
44
42
ENDCHAR
STARTCHAR C354
ENCODING 236
SWIDTH 1 0
DWIDTH 8 0
BBX 8 13 0 0
BITMAP
00
00
00
00
00
00
40
20
10
08
14
22
41
ENDCHAR
STARTCHAR C355
ENCODING 237
SWIDTH 1 0
DWIDTH 8 0
BBX 8 13 0 0
BITMAP
00
00
00
00
00
00
00
22
22
22
22
5d
40
ENDCHAR
STARTCHAR C356
ENCODING 238
SWIDTH 1 0
DWIDTH 8 0
BBX 8 13 0 0
BITMAP
00
00
00
00
00
00
00
62
22
22
24
38
40
ENDCHAR
STARTCHAR C357
ENCODING 239
SWIDTH 1 0
DWIDTH 8 0
BBX 8 13 0 0
BITMAP
00
00
00
00
00
00
00
0e
11
21
22
1c
00
ENDCHAR
STARTCHAR C360
ENCODING 240
SWIDTH 1 0
DWIDTH 8 0
BBX 8 13 0 0
BITMAP
00
00
00
00
00
00
00
3f
64
24
24
24
24
ENDCHAR
STARTCHAR C361
ENCODING 241
SWIDTH 1 0
DWIDTH 8 0
BBX 8 13 0 0
BITMAP
00
00
00
00
00
00
1c
22
42
7e
42
44
38
ENDCHAR
STARTCHAR C362
ENCODING 242
SWIDTH 1 0
DWIDTH 8 0
BBX 8 13 0 0
BITMAP
00
00
00
00
00
00
00
00
0e
11
21
5e
40
ENDCHAR
STARTCHAR C363
ENCODING 243
SWIDTH 1 0
DWIDTH 8 0
BBX 8 13 0 0
BITMAP
00
00
00
00
00
00
00
3f
48
44
44
44
38
ENDCHAR
STARTCHAR C364
ENCODING 244
SWIDTH 1 0
DWIDTH 8 0
BBX 8 13 0 0
BITMAP
00
00
00
00
00
00
00
3f
44
04
08
08
10
ENDCHAR
STARTCHAR C365
ENCODING 245
SWIDTH 1 0
DWIDTH 8 0
BBX 8 13 0 0
BITMAP
00
00
00
00
00
00
00
21
11
21
21
22
1c
ENDCHAR
STARTCHAR C366
ENCODING 246
SWIDTH 1 0
DWIDTH 8 0
BBX 8 13 0 0
BITMAP
00
00
00
00
00
00
00
00
1e
20
3c
20
1e
ENDCHAR
STARTCHAR C367
ENCODING 247
SWIDTH 1 0
DWIDTH 8 0
BBX 8 13 0 0
BITMAP
00
00
00
00
00
00
00
00
22
41
49
49
36
ENDCHAR
STARTCHAR C370
ENCODING 248
SWIDTH 1 0
DWIDTH 8 0
BBX 8 13 0 0
BITMAP
00
00
00
00
00
00
00
61
12
0c
18
24
43
ENDCHAR
STARTCHAR C371
ENCODING 249
SWIDTH 1 0
DWIDTH 8 0
BBX 8 13 0 0
BITMAP
00
00
00
00
00
00
00
08
49
49
3e
08
08
ENDCHAR
STARTCHAR C372
ENCODING 250
SWIDTH 1 0
DWIDTH 8 0
BBX 8 13 0 0
BITMAP
00
00
00
00
00
00
20
1c
20
20
10
08
70
ENDCHAR
STARTCHAR C373
ENCODING 251
SWIDTH 1 0
DWIDTH 8 0
BBX 8 13 0 0
BITMAP
00
00
00
40
40
40
7f
40
40
40
00
00
00
ENDCHAR
STARTCHAR C374
ENCODING 252
SWIDTH 1 0
DWIDTH 8 0
BBX 8 13 0 0
BITMAP
00
7c
10
30
50
10
10
10
10
10
7c
00
00
ENDCHAR
STARTCHAR C375
ENCODING 253
SWIDTH 1 0
DWIDTH 8 0
BBX 8 13 0 0
BITMAP
00
00
00
40
40
7f
40
7f
40
40
00
00
00
ENDCHAR
STARTCHAR C376
ENCODING 254
SWIDTH 1 0
DWIDTH 8 0
BBX 8 13 0 0
BITMAP
00
01
01
1e
26
45
49
49
51
32
3c
40
40
ENDCHAR
STARTCHAR C377
ENCODING 255
SWIDTH 1 0
DWIDTH 8 0
BBX 8 13 0 0
BITMAP
00
00
00
10
10
20
20
3c
22
42
7c
00
00
ENDCHAR
ENDFONT
